<svg width="70" height="71" viewBox="0 0 70 71" fill="none" xmlns="http://www.w3.org/2000/svg">
<path fill-rule="evenodd" clip-rule="evenodd" d="M8.4337 6.53223C8.20274 6.63203 7.97786 6.90971 7.90225 7.18843C7.8516 7.37501 7.85747 7.4839 7.93296 7.76074C8.04956 8.18798 8.5154 9.11199 9.03445 9.94529C9.25274 10.2958 9.52413 10.7322 9.63755 10.915C9.75097 11.0979 10.0878 11.6215 10.3861 12.0787C10.8922 12.8542 11.2251 13.3375 12.4669 15.0987C13.2046 16.145 14.3881 17.7698 14.5171 17.9135C14.6235 18.032 15.0789 18.6546 15.9845 19.9196C16.1918 20.2092 16.5634 20.7026 16.8105 21.016C17.254 21.5789 17.407 21.7838 18.5858 23.3941C18.916 23.8452 19.476 24.6007 19.8302 25.0731C20.1845 25.5455 20.5928 26.0983 20.7377 26.3015C20.8825 26.5048 21.3026 27.0685 21.6711 27.5542C22.0397 28.04 22.5059 28.6592 22.707 28.9302C22.9082 29.2012 23.4862 29.9698 23.9914 30.6381C24.951 31.9074 25.3558 32.4406 29.3086 37.6425C30.6364 39.3897 31.9165 41.0827 32.1533 41.4046C32.3901 41.7265 32.6335 42.0424 32.6942 42.1066C32.7549 42.1709 33.1049 42.6473 33.4719 43.1654C33.839 43.6835 34.3075 44.3194 34.5129 44.5785C34.7184 44.8375 35.2049 45.4897 35.5942 46.0278C35.9833 46.5659 36.4444 47.1893 36.6186 47.4132C36.9959 47.8978 38.1921 49.4734 38.6052 50.0298C38.7664 50.2469 39.0554 50.6265 39.2474 50.8734C39.4394 51.1203 40.0092 51.8684 40.5137 52.5358C41.0181 53.2032 41.7636 54.1624 42.1704 54.6672C42.7814 55.4253 42.9629 55.6953 43.2138 56.2187C43.3809 56.5673 43.7371 57.239 44.0054 57.7114C44.2736 58.1837 44.754 59.0977 45.0728 59.7423C45.5898 60.7874 45.9015 61.3452 46.4192 62.1518C46.743 62.6564 48.6607 65.2128 49.497 66.2548C50.7636 67.8329 51.7155 68.889 52.178 69.2292C52.3861 69.3823 52.6056 69.5616 52.6658 69.6277C52.8028 69.778 53.6513 70.279 53.941 70.3805C54.4129 70.5458 54.9266 70.4349 55.1092 70.1283C55.2321 69.9217 55.2352 69.3436 55.1157 68.8851C55.008 68.472 54.7152 67.8306 54.429 67.3809C54.3126 67.1981 54.0764 66.8116 53.9042 66.522C53.7319 66.2325 53.1633 65.3722 52.6404 64.6103C51.3564 62.7389 50.7044 61.7683 48.7037 58.7499C48.082 57.812 47.6184 57.0689 46.9667 55.9658C46.7146 55.5392 46.3998 55.0155 46.267 54.8022C45.9688 54.323 45.8843 54.0981 45.8812 53.7746C45.8783 53.4695 45.7208 53.2048 45.0411 52.3623C44.072 51.1609 43.7408 50.7448 43.3667 50.2583C43.1558 49.984 42.8772 49.6254 42.7476 49.4615C41.4085 47.7666 41.734 47.7038 44.2035 49.1801C45.2305 49.7941 46.5139 50.436 47.1346 50.646C47.5221 50.7771 47.6433 50.7936 48.056 50.7713C49.436 50.6964 50.266 49.78 50.3334 48.2568C50.3645 47.555 50.2842 47.2545 49.854 46.4625C49.58 45.9581 49.4412 45.7819 48.8112 45.1386C47.5183 43.8183 45.7848 42.6752 44.036 41.9899C42.547 41.4065 42.4373 41.3694 41.6125 41.1704C40.0923 40.8036 39.1304 40.6782 37.6979 40.6599C36.9915 40.6509 36.3574 40.6308 36.2888 40.6153C36.2203 40.5998 36.0753 40.5096 35.9666 40.4149C35.7809 40.2531 34.9038 39.1242 34.4873 38.5107C34.3838 38.3583 34.0936 37.9718 33.8423 37.6518C33.5911 37.3318 33.1169 36.7209 32.7885 36.2942C31.171 34.192 31.2001 34.239 31.3943 34.0467C31.5277 33.9147 32.4091 33.7399 33.2026 33.6883C33.525 33.6673 33.9602 33.6155 34.1695 33.573C34.7039 33.4646 37.2213 33.4689 37.7258 33.579C37.9254 33.6225 38.2286 33.6591 38.3996 33.6601C38.5706 33.6612 38.847 33.6846 39.0138 33.7121C39.1808 33.7396 39.5434 33.7917 39.8199 33.8279C41.528 34.0517 43.2237 34.6118 44.9111 35.5096C45.3358 35.7355 46.3618 36.3716 47.1911 36.923C49.5125 38.4667 50.1604 38.938 51.904 40.3509C53.7296 41.8304 54.6757 42.4078 55.9304 42.8087C57.1026 43.1832 57.612 43.1414 58.3666 42.6091C58.7171 42.3618 59.0943 41.8934 59.2021 41.5715C59.3384 41.1641 59.3176 39.2837 59.1699 38.6665C59.0604 38.2093 58.4855 37.0132 58.1761 36.599C57.7601 36.0422 56.7364 34.919 56.2386 34.4733C54.7351 33.127 52.3337 31.4734 50.5864 30.5811C50.1932 30.3802 49.7961 30.1704 49.704 30.1147C49.3433 29.8967 47.5964 29.174 46.8347 28.9276C46.3929 28.7847 45.9029 28.6217 45.7457 28.5654C45.0907 28.3303 43.6485 27.9936 41.6935 27.6192C40.3603 27.3639 40.2571 27.3503 39.1218 27.2804C37.0585 27.1534 34.3641 27.2479 32.7279 27.5046C30.8586 27.7979 29.0465 28.2023 28.0723 28.5437C27.6924 28.6768 27.3237 28.7857 27.253 28.7857C27.0127 28.7857 26.7776 28.5241 25.4405 26.7691C24.7303 25.837 24.4254 25.4429 23.9327 24.8206C23.6717 24.4908 23.323 24.0449 23.1579 23.8297C22.9929 23.6145 22.7729 23.3448 22.6693 23.2304C22.442 22.9796 22.4138 22.7012 22.5986 22.5303C22.7452 22.3948 23.9145 21.9908 25.0217 21.6931C25.4824 21.5693 26.098 21.3938 26.3898 21.3031C27.2166 21.0463 29.3797 20.6126 30.1312 20.553C30.3616 20.5347 30.7888 20.4701 31.0805 20.4092C32.3228 20.1503 33.7957 20.0592 36.7485 20.0587C39.1176 20.0582 39.4737 20.0702 40.4062 20.1816C40.9744 20.2494 41.6529 20.3437 41.914 20.391C42.175 20.4384 42.6902 20.5248 43.0587 20.5831C44.6513 20.8348 45.1402 20.9613 46.5209 21.4791C48.6196 22.266 49.9836 22.9525 51.9935 24.2332C53.1672 24.9811 53.4571 25.1786 53.8363 25.4883C53.9899 25.6137 54.2788 25.8386 54.4785 25.9881C54.869 26.2806 55.5914 26.9028 55.9573 27.2619C56.0815 27.3838 56.2959 27.5696 56.4337 27.6748C56.7942 27.9499 57.7352 28.8009 58.6391 29.6691C59.0693 30.0823 59.682 30.6448 60.0007 30.9191C60.3194 31.1934 60.7087 31.5318 60.8659 31.671C61.6007 32.3222 62.9689 33.1403 63.8843 33.4759C64.7236 33.7835 65.1914 33.8841 65.7762 33.8825C66.3335 33.881 66.6022 33.7746 66.8895 33.4415C67.4592 32.7811 67.388 31.7922 66.6331 29.883C66.139 28.6331 65.3635 27.1223 64.7468 26.2082C64.3301 25.5905 64.0735 25.2858 63.4433 24.6604C62.4179 23.6428 61.2066 22.607 59.8735 21.6075C59.6311 21.4259 59.2522 21.1401 59.0313 20.9725C57.365 19.7079 56.4983 19.1185 55.3161 18.4458C54.5989 18.0378 52.1105 16.7955 51.798 16.6895C51.6598 16.6426 51.1321 16.4386 50.6254 16.2362C50.1186 16.0337 49.2265 15.7299 48.643 15.5608C48.0594 15.3919 47.3809 15.1952 47.1352 15.1238C46.8895 15.0523 46.1482 14.8904 45.4879 14.7638C44.8275 14.6373 44.0485 14.4855 43.7568 14.4265C43.1973 14.3133 42.6729 14.2439 41.6627 14.1491C40.7329 14.062 37.6193 14.0246 36.9998 14.0932C36.7081 14.1255 36.1552 14.1796 35.7713 14.2134C35.3874 14.2471 34.8094 14.3227 34.4869 14.3813C34.1644 14.4399 33.4231 14.5652 32.8396 14.6597C31.6057 14.8594 29.8158 15.2224 29.4792 15.3411C29.351 15.3864 28.9992 15.4761 28.6974 15.5406C26.9183 15.9208 22.5725 17.2697 20.878 17.9678C19.7423 18.4356 19.4128 18.5528 19.2325 18.5528C19.0314 18.5528 18.8934 18.4169 18.2518 17.5878C17.8736 17.099 16.7146 15.6211 15.8914 14.5778C14.63 12.9791 14.0866 12.3009 12.7364 10.6402C12.2449 10.0358 11.7436 9.41393 11.6224 9.25839C11.1189 8.61272 10.4784 7.83294 10.0177 7.30464C9.34711 6.53583 8.914 6.3246 8.4337 6.53223ZM13.4065 21.7394C12.5711 22.2391 11.7806 22.776 10.9307 23.4207C10.3934 23.8284 10.1467 24.0219 9.21829 24.7642C8.7453 25.1424 7.17379 26.5884 6.76123 27.0251C5.13085 28.7507 3.70648 30.758 2.63403 32.8415C2.22013 33.6456 2.17478 33.9471 2.39938 34.4026C2.59444 34.7982 2.90029 35.0047 3.33899 35.037C4.0034 35.0859 4.25485 34.9362 4.79909 34.1684C5.07562 33.7783 6.40584 32.4208 6.92875 31.9951C7.05161 31.8951 7.32802 31.6462 7.54302 31.4419C8.01254 30.9958 8.64836 30.4603 9.39369 29.8834C9.69646 29.649 10.1984 29.2587 10.5091 29.0162C10.8197 28.7737 11.1622 28.5166 11.2701 28.4449C11.378 28.3733 11.9102 28.0155 12.4527 27.6498C13.6466 26.845 14.4586 26.3331 15.1655 25.9397C16.4265 25.2379 16.7291 25.0209 16.7291 24.8183C16.7291 24.6974 16.3346 24.0874 15.4421 22.8288C15.2044 22.4936 14.9191 22.0651 14.8079 21.8766C14.598 21.5202 14.3774 21.3049 14.2226 21.305C14.173 21.3051 13.8057 21.5005 13.4065 21.7394ZM39.5407 29.7178C40.4958 29.8501 40.8068 29.9032 41.3835 30.0327C41.7213 30.1086 42.2741 30.2326 42.612 30.3083C43.7163 30.5557 44.4338 30.7796 45.8229 31.3099C47.7591 32.0491 49.4961 32.9118 50.8208 33.7925C52.6537 35.0108 54.2414 36.3579 55.1255 37.4447C55.4537 37.8482 55.7588 38.2638 55.8034 38.3684C55.8875 38.5655 55.8662 38.8304 55.7557 38.9626C55.6389 39.1022 55.2475 39.013 54.9811 38.7862C54.8925 38.7109 54.4927 38.4625 53.0824 37.6066C50.3408 35.9429 47.8703 34.6918 46.158 34.1002C45.7126 33.9464 45.2189 33.7737 45.0609 33.7165C44.6659 33.5736 43.5005 33.3078 42.5282 33.1389C42.0829 33.0616 41.5426 32.9623 41.3276 32.9184C41.1126 32.8744 40.7357 32.8131 40.49 32.782C37.7989 32.4416 36.1853 32.3683 34.0123 32.4878C32.7297 32.5584 32.0869 32.6233 31.4156 32.7499C30.6315 32.8978 30.3734 32.9112 30.2211 32.8122C30.1053 32.737 29.6576 32.1977 28.9769 31.3137C28.7414 31.0079 28.701 30.8342 28.8294 30.6796C28.9996 30.4749 31.3959 29.9424 32.8396 29.7884C33.1467 29.7556 33.5739 29.7061 33.7889 29.6784C34.2896 29.6138 39.0242 29.6462 39.5407 29.7178ZM21.3548 31.6365C21.0999 31.7235 20.0939 32.4256 19.1692 33.162C18.3526 33.8122 16.7381 35.3731 16.1092 36.1202C14.7857 37.6927 13.8773 39.0352 13.217 40.3948C12.773 41.309 12.6122 41.799 12.5601 42.396C12.529 42.7543 12.5371 42.8015 12.65 42.9135C12.7601 43.0227 12.8102 43.0325 13.0939 42.9998C13.4527 42.9585 13.5078 42.9923 13.5727 43.2934C13.623 43.5267 13.9276 43.8313 14.156 43.8766C14.5067 43.9462 14.7629 43.7964 15.333 43.1883C16.4014 42.0486 17.8847 40.616 18.5409 40.09C19.7576 39.1147 21.1379 38.1262 21.9224 37.6684C22.2142 37.4982 22.5911 37.2781 22.76 37.1793C23.3475 36.8359 23.9073 36.557 24.31 36.4072C24.735 36.2492 24.8822 36.1134 24.8818 35.8801C24.881 35.5347 24.2033 34.7703 23.8978 34.7703C23.6479 34.7703 22.5612 35.2241 21.5874 35.7351C20.6163 36.2447 19.2808 37.0295 18.9069 37.3104C18.0705 37.9388 17.12 38.4847 17.12 38.3367C17.12 38.3173 17.2553 38.0991 17.4207 37.8519C17.635 37.5315 18.0639 37.0679 18.9145 36.2372C20.1206 35.0593 20.6345 34.6295 21.6631 33.939C21.9747 33.7299 22.3364 33.4679 22.4669 33.3568C22.8192 33.0569 22.7988 32.9322 22.2845 32.2406C21.8191 31.6146 21.6813 31.5251 21.3548 31.6365ZM29.0292 42.8394C27.788 43.4819 26.5472 44.2057 25.8824 44.6752C24.3706 45.7426 23.0877 47.252 22.1359 49.0825L21.7838 49.7596L21.7833 50.2583C21.7829 50.68 21.8044 50.7997 21.9224 51.0341C22.127 51.4401 22.5108 51.7993 22.8911 51.9405C23.3163 52.0983 23.606 52.0884 24.0444 51.9012C24.4353 51.7342 26.1016 50.6692 26.9203 50.063C27.6284 49.5388 28.1016 49.2434 29.2816 48.5893C30.2756 48.0382 30.7405 47.8406 32.0299 47.4208C33.0847 47.0773 33.1169 47.0615 33.1343 46.8766C33.153 46.6786 32.8911 46.297 31.3147 44.2261C30.1913 42.7504 29.9885 42.5282 29.7649 42.5282C29.6909 42.5282 29.3599 42.6682 29.0292 42.8394ZM35.0881 53.7237C34.8043 53.7934 34.0263 54.1858 33.6387 54.4546C33.1083 54.8225 32.2148 56.0302 31.9392 56.7518C31.772 57.1895 31.5831 58.0617 31.5832 58.3955C31.5832 58.7189 31.7324 59.3911 31.8786 59.7272C32.1762 60.411 32.4001 60.7402 32.9225 61.2622C33.3618 61.701 33.5409 61.8366 33.9564 62.0448C34.944 62.5398 35.5473 62.6699 36.6668 62.6295C37.5601 62.5972 37.7602 62.5367 38.4417 62.0924C39.032 61.7075 39.294 61.4245 39.9223 60.4925C40.619 59.4592 41.1881 58.0915 41.188 57.4504C41.188 57.1111 40.8208 56.4443 40.1335 55.5357C39.3463 54.4947 38.9828 54.2082 38.0196 53.8691C37.5409 53.7005 37.5061 53.6965 36.4135 53.6847C35.7992 53.6779 35.2028 53.6956 35.0881 53.7237ZM36.1665 57.5408C36.4266 57.7989 36.368 58.2655 36.0756 58.2655C35.8992 58.2655 35.716 57.982 35.7157 57.7086C35.7153 57.354 35.9066 57.2829 36.1665 57.5408Z" fill="#1D1D1F"/>
</svg>
